<svg width="600" height="634" viewBox="0 0 600 634" fill="none" xmlns="http://www.w3.org/2000/svg">
<path d="M154.219 633.546H417.125C417.672 633.708 418.224 633.89 418.823 633.89C426.766 633.89 434.193 633.76 441.365 633.546H444.245C444.339 633.546 444.432 633.546 444.531 633.541C445.11 633.51 445.63 633.432 446.198 633.4C510.313 630.968 542.515 617.734 545.381 570.332C546.579 570.473 547.782 570.614 548.959 570.614C555.672 570.614 562.042 568.473 567.724 564.249C587.719 549.38 599.194 508.17 599.194 451.192C599.194 424.306 591.881 404.025 577.464 390.905C563.443 378.139 546.615 375.853 538.142 375.566L530.923 196.5C530.855 194.734 530.621 192.984 530.24 191.213C514.084 118.109 463.735 95.1507 403.959 87.552C403.219 39.1507 363.678 0 315.115 0H271C221.97 0 182.083 39.8853 182.083 88.9173C182.083 89.0788 182.161 89.2194 182.177 89.3913C127.896 98.6153 83.2502 123.194 68.2342 191.203C67.8383 192.969 67.6144 194.735 67.5415 196.516L60.3227 375.609C51.6404 376 35.364 378.51 21.7293 390.916C7.30801 404.036 0 424.312 0 451.202C0 508.181 11.474 549.39 31.4693 564.26C37.1568 568.484 43.5163 570.624 50.2347 570.624C51.1774 570.624 52.1409 570.484 53.0992 570.406C55.8909 613.854 85.4325 628.504 141.13 632.348C145.307 632.885 149.64 633.317 154.213 633.546H154.219ZM569.725 399.626C581.548 410.454 587.537 427.788 587.537 451.184C587.537 503.653 577.527 542.418 560.772 554.877C556.126 558.325 551.09 559.445 545.522 558.533L540.204 426.497C543.23 427.393 547.157 429.304 550.735 433.419C558.021 441.763 565.126 460.58 557.579 502.82C557.011 505.992 559.126 509.029 562.292 509.586C562.636 509.648 562.985 509.68 563.329 509.68C566.1 509.68 568.558 507.695 569.063 504.872C575.823 467.008 572.511 440.279 559.225 425.414C552.475 417.862 544.725 415.278 539.709 414.429L538.61 387.263C545.604 387.632 558.922 389.731 569.724 399.627L569.725 399.626ZM58.7521 414.596C53.7365 415.559 46.424 418.189 39.9601 425.413C26.6737 440.277 23.3721 467.007 30.1216 504.872C30.6268 507.695 33.0852 509.679 35.856 509.679C36.1998 509.679 36.5383 509.648 36.8924 509.586C40.0643 509.023 42.1736 505.992 41.606 502.82C34.0696 460.58 41.1686 441.763 48.4498 433.419C51.7571 429.637 55.3405 427.747 58.2519 426.762L52.9394 558.674C47.6582 559.367 42.8613 558.185 38.4087 554.888C21.6487 542.43 11.6434 503.664 11.6434 451.195C11.6434 427.799 17.6382 410.46 29.4554 399.637C39.8877 390.085 52.674 387.809 59.8354 387.325L58.7521 414.596ZM271.005 11.6622H315.12C356.823 11.6622 390.823 44.8968 392.235 86.2608C380.068 85.115 367.609 84.4745 355.016 84.089C352.599 64.1157 335.735 48.5263 315.125 48.5263H271.011C250.229 48.5263 233.265 64.3543 231.063 84.5677C218.391 85.1458 205.917 86.0677 193.823 87.6406C194.51 45.6353 228.839 11.6619 271.005 11.6619V11.6622ZM343.323 83.7982C336.042 83.6523 328.739 83.5482 321.468 83.4544C314.88 83.3711 308.275 83.2669 301.681 83.1419C301.525 83.1419 301.395 83.0638 301.239 83.0742C300.572 83.0899 299.911 83.0899 299.239 83.1055C298.572 83.0899 297.911 83.0899 297.239 83.0742C297.077 83.069 296.942 83.1419 296.78 83.1419C290.187 83.2669 283.583 83.3659 277.01 83.4544C265.598 83.6003 254.146 83.7513 242.786 84.1003C245.088 70.5589 256.832 60.1883 271.02 60.1883H315.135C329.203 60.1935 340.895 70.3965 343.323 83.7976L343.323 83.7982ZM64.4295 563.718L79.2055 196.972C79.2419 195.888 79.3774 194.826 79.6274 193.737C100.909 97.3931 186.518 96.2998 277.147 95.1225C284.491 95.0235 291.861 94.9193 299.23 94.7787C306.595 94.9193 313.97 95.0183 321.318 95.1225C411.958 96.2891 497.571 97.3933 518.851 193.71C519.086 194.794 519.232 195.872 519.273 196.971L534.044 563.478C534.044 588.644 526.559 603.79 505.148 612.395C506.997 610.624 508.71 608.754 510.289 606.765C524.445 588.853 522.039 568.53 521.502 565.109L506.633 196.895C494.591 111.27 336.233 106.937 304.606 106.937L301.356 106.957L293.851 106.937C262.226 106.937 103.878 111.275 91.7843 197.478L76.967 565.105C76.4357 568.526 74.0295 588.859 88.1806 606.761C89.3524 608.245 90.691 609.61 92.0295 610.974C71.8522 602.209 64.4255 587.417 64.4255 563.704L64.4295 563.718ZM97.4508 599.677C85.5133 584.698 88.4977 566.928 88.5237 566.77C88.5758 566.499 88.6071 566.223 88.6175 565.947L103.393 198.547C114.315 120.87 275.513 118.63 293.86 118.63L297.11 118.651L304.615 118.63C322.965 118.63 484.162 120.87 495.015 197.969L509.849 565.955C509.854 566.221 509.896 566.502 509.942 566.763C509.974 566.94 512.953 584.721 501.015 599.695C490.646 612.7 472.198 620.064 446.275 621.721C444.505 621.789 442.65 621.846 440.817 621.893L181.884 621.898C181.878 621.898 181.863 621.893 181.852 621.893C166.732 621.893 153.55 621.487 141.826 620.69C121.326 617.872 106.367 610.872 97.4457 599.679L97.4508 599.677Z" fill="black"/>
<path d="M333.659 301.586H264.82C210.997 301.586 167.216 345.367 167.216 399.19V554.07C167.216 557.289 169.831 559.903 173.049 559.903H425.436C428.655 559.903 431.27 557.289 431.27 554.07V399.19C431.27 345.367 387.478 301.586 333.665 301.586H333.659ZM419.596 548.226H178.876V399.173C178.876 351.782 217.428 313.235 264.813 313.235H333.652C381.032 313.235 419.589 351.782 419.589 399.173L419.596 548.226Z" fill="black"/>
<path d="M454.925 588.733H479.128C482.347 588.733 484.961 586.118 484.961 582.9V305.74C484.961 230.39 423.659 169.1 348.295 169.1H250.164C174.815 169.1 113.511 230.402 113.511 305.74V582.9C113.511 586.118 116.125 588.733 119.344 588.733H454.925ZM449.092 577.066H149.372V391.826C149.372 332.613 197.549 284.43 256.773 284.43H341.685C400.904 284.43 449.087 332.608 449.087 391.826L449.092 577.066ZM137.705 577.066H125.174V305.733C125.174 236.821 181.242 180.754 250.164 180.754H348.294C417.212 180.754 473.289 236.822 473.289 305.733V577.066H460.753L460.758 391.826C460.758 326.181 407.346 272.764 341.69 272.764H256.778C191.127 272.764 137.71 326.176 137.71 391.826L137.705 577.066Z" fill="black"/>
</svg>
