<svg width="583" height="673" viewBox="0 0 583 673" fill="none" xmlns="http://www.w3.org/2000/svg">
<path d="M246.867 0.332837C185.84 0.332837 134.867 47.7342 134.867 107.432V149.666H102.897C93.5848 150.619 85.2987 158.02 83.2987 167.166L0.929357 540.5C-2.00291 553.578 9.46054 567.844 22.8613 567.802H265.528C289.507 628.953 349.159 672.333 418.595 672.333C509.053 672.333 582.861 598.521 582.861 508.066C582.861 428.274 525.497 361.493 449.861 346.826L410.429 167.16C408.216 157.295 398.601 149.629 388.497 149.659H358.861V107.425C358.861 47.7222 307.883 0.326172 246.861 0.326172L246.867 0.332837ZM246.867 45.1355C285.121 45.1355 314.069 73.1248 314.069 107.438V149.673H179.669V107.438C179.669 73.1262 208.617 45.1355 246.872 45.1355H246.867ZM123.2 194.469H134.867V201.938C134.7 213.771 145.429 224.656 157.268 224.656C169.101 224.656 179.836 213.771 179.669 201.938V194.469H314.069V201.938C313.903 213.771 324.632 224.656 336.471 224.656C348.304 224.656 359.039 213.771 358.872 201.938V194.469H370.539L403.675 344.496C320.153 352.084 254.341 422.632 254.341 508.069C254.341 513.095 254.597 518.084 255.039 523.001H50.8793L123.2 194.469ZM418.6 388.602C484.845 388.602 538.069 441.826 538.069 508.072C538.069 574.317 484.845 627.541 418.6 627.541C352.355 627.541 299.131 574.317 299.131 508.072C299.131 441.826 352.355 388.602 418.6 388.602V388.602ZM418.366 440.405C406.558 440.525 395.954 451.467 396.199 463.269V485.67H373.798C373.022 485.597 372.24 485.597 371.464 485.67C359.735 486.285 349.615 497.509 350.23 509.238C350.839 520.967 362.068 531.082 373.798 530.473H396.199V552.874C396.032 564.708 406.762 575.593 418.6 575.593C430.434 575.593 441.168 564.707 441.002 552.874V530.473H463.403C475.236 530.64 486.122 519.91 486.122 508.072C486.122 496.238 475.236 485.504 463.403 485.67H441.002V463.269C441.252 451.31 430.33 440.274 418.366 440.405Z" fill="black"/>
</svg>
