<svg width="570" height="495" viewBox="0 0 570 495" fill="none" xmlns="http://www.w3.org/2000/svg">
<path d="M284.685 213.08C344.065 213.08 392.382 276.19 392.382 353.774C392.382 431.352 344.065 494.467 284.685 494.467C225.305 494.467 176.988 431.358 176.988 353.774C176.988 276.195 225.305 213.08 284.685 213.08ZM284.685 463.347C326.914 463.347 361.269 414.191 361.269 353.768C361.269 293.342 326.914 244.184 284.685 244.184C242.456 244.184 208.101 293.34 208.101 353.763C208.101 414.19 242.456 463.347 284.685 463.347V463.347Z" fill="black"/>
<path d="M280.018 213.76C288.607 213.76 295.576 220.729 295.576 229.318C295.352 237.646 296.685 245.938 299.503 253.776C303.3 264.677 305.128 276.162 304.909 287.703C305.133 299.239 303.305 310.73 299.508 321.624C296.69 329.463 295.357 337.755 295.576 346.083C295.357 354.39 296.685 362.667 299.492 370.484C303.3 381.37 305.133 392.848 304.909 404.38C305.133 415.901 303.3 427.375 299.497 438.255C296.69 446.073 295.357 454.343 295.576 462.651C295.576 471.239 288.607 478.208 280.018 478.208C271.43 478.208 264.461 471.239 264.461 462.651C264.237 451.125 266.07 439.656 269.872 428.776C272.68 420.959 274.008 412.683 273.789 404.38C274.013 396.068 272.68 387.792 269.867 379.968C266.07 369.083 264.242 357.608 264.461 346.083C264.237 334.547 266.065 323.056 269.862 312.162C272.68 304.323 274.013 296.031 273.794 287.703C274.018 279.375 272.685 271.078 269.867 263.239C266.07 252.338 264.242 240.854 264.461 229.318C264.461 225.192 266.102 221.234 269.018 218.318C271.935 215.401 275.893 213.76 280.018 213.76Z" fill="black"/>
<path d="M135.725 0.000378451C147.423 -0.0412882 159.001 2.33369 169.736 6.98475C224.178 30.6981 243.288 107.854 212.324 178.971C181.35 250.111 111.85 288.659 57.4169 264.977C2.97422 241.263 -16.1352 164.107 14.8288 92.9901C39.6155 36.0728 89.0635 0.000785352 135.73 0.000785352L135.725 0.000378451ZM183.793 166.56C207.918 111.148 196.038 52.363 157.314 35.5084C118.58 18.607 67.4596 50.0137 43.3502 105.41C19.2409 160.806 31.1054 219.603 69.8289 236.456C108.496 253.336 159.668 221.951 183.793 166.555V166.56Z" fill="black"/>
<path d="M159.338 4.61368C164.578 4.6241 169.463 7.26997 172.338 11.6501C175.208 16.0356 175.682 21.572 173.593 26.3794C170.057 34.0253 167.838 42.2128 167.031 50.5928C164.291 73.2861 154.979 94.6808 140.228 112.15C129.322 125.036 122.436 140.843 120.431 157.603C117.707 180.27 108.405 201.639 93.6762 219.082C88.0981 225.358 83.6293 232.535 80.4574 240.311C77.0304 248.192 67.8637 251.796 59.9841 248.369C52.1092 244.942 48.4997 235.775 51.9268 227.899C56.2757 217.394 62.3122 207.67 69.8068 199.123C80.713 186.259 87.5881 170.467 89.5721 153.722C92.3117 131.045 101.619 109.659 116.359 92.2061C127.275 79.2998 134.161 63.4768 136.171 46.6954C137.327 35.3725 140.332 24.3154 145.067 13.9661C147.541 8.28383 153.145 4.61193 159.337 4.61193L159.338 4.61368Z" fill="black"/>
<path d="M433.645 0.000297071C480.312 0.000297071 529.76 36.0683 554.541 92.9843C585.51 164.115 566.405 241.264 511.962 264.984C457.468 288.667 388.02 250.104 357.042 178.979C326.073 107.854 345.178 30.6989 399.621 6.99228C410.361 2.34121 421.938 -0.0389022 433.642 0.00269779L433.645 0.000297071ZM477.249 241.014C484.916 241.05 492.504 239.498 499.541 236.456C538.254 219.602 550.134 160.811 526.01 105.404C501.89 49.9923 450.797 18.6549 412.041 35.5083C373.328 52.3629 361.448 111.154 385.572 166.56C405.269 211.811 442.988 241.014 477.249 241.014Z" fill="black"/>
<path d="M402.178 8.04021C408.376 8.04021 413.98 11.7173 416.454 17.3995C419.636 25.1965 424.116 32.3942 429.709 38.6969C444.455 56.1555 453.772 77.5515 456.507 100.238C458.496 117.009 465.382 132.817 476.299 145.702C491.033 163.14 500.34 184.509 503.064 207.176C503.856 215.54 506.064 223.706 509.6 231.332C513.028 239.207 509.418 248.373 501.543 251.801C493.663 255.228 484.496 251.619 481.07 243.744C476.341 233.405 473.341 222.358 472.189 211.05C470.21 194.305 463.335 178.514 452.43 165.649C444.93 157.102 438.888 147.378 434.539 136.873C429.804 126.519 426.799 115.461 425.643 104.138C423.648 87.3515 416.757 71.5289 405.831 58.6329C398.326 50.0651 392.279 40.3302 387.924 29.8049C385.841 24.9975 386.315 19.4611 389.185 15.0809C392.054 10.6954 396.94 8.04968 402.185 8.03928L402.178 8.04021Z" fill="black"/>
</svg>
