<svg width="613" height="673" viewBox="0 0 613 673" fill="none" xmlns="http://www.w3.org/2000/svg">
<path d="M304.507 0.431958C299.064 0.952784 294.007 3.44236 290.272 7.43196L6.60532 306.045C2.56892 310.316 0.365717 315.998 0.48025 321.873C0.594833 327.748 3.01145 333.342 7.20945 337.452C11.4125 341.561 17.0584 343.858 22.9335 343.843H90.1214V649.936C90.1214 655.873 92.4808 661.571 96.684 665.769C100.882 669.972 106.58 672.332 112.517 672.332H239.424C245.361 672.332 251.059 669.973 255.257 665.769C259.46 661.571 261.82 655.873 261.82 649.936V470.763H351.404V649.936C351.404 655.873 353.763 661.571 357.961 665.769C362.159 669.972 367.857 672.332 373.795 672.332H500.707C506.644 672.332 512.342 669.973 516.54 665.769C520.738 661.571 523.097 655.873 523.097 649.936V343.843H590.285C596.16 343.858 601.811 341.561 606.009 337.452C610.212 333.343 612.629 327.749 612.744 321.873C612.853 315.998 610.655 310.316 606.619 306.045L322.939 7.41862C318.209 2.36129 311.402 -0.222042 304.512 0.423825L304.507 0.431958ZM306.606 55.4893L538.019 299.049H500.691L500.696 299.055C494.753 299.055 489.061 301.414 484.857 305.612C480.66 309.815 478.3 315.508 478.3 321.451V627.544H396.185V448.37L396.18 448.376C396.18 442.433 393.821 436.735 389.623 432.537C385.42 428.339 379.727 425.98 373.784 425.975H239.411C233.473 425.98 227.775 428.339 223.578 432.537C219.375 436.735 217.015 442.433 217.015 448.376V627.549H134.9V321.456C134.9 315.513 132.541 309.82 128.338 305.617C124.14 301.419 118.442 299.06 112.505 299.06H75.1765L306.59 55.4997L306.606 55.4893Z" fill="black"/>
</svg>
